<svg width="72" height="72" viewBox="0 0 72 72" fill="none" xmlns="http://www.w3.org/2000/svg">
<path d="M54.1797 16.9051C53.0251 15.7505 51.1599 15.7505 50.0052 16.9051L35.5277 31.353L21.0502 16.8755C19.8955 15.7209 18.0303 15.7209 16.8757 16.8755C15.721 18.0302 15.721 19.8954 16.8757 21.05L31.3532 35.5276L16.8757 50.0051C15.721 51.1597 15.721 53.0249 16.8757 54.1796C18.0303 55.3342 19.8955 55.3342 21.0502 54.1796L35.5277 39.7021L50.0052 54.1796C51.1599 55.3342 53.0251 55.3342 54.1797 54.1796C55.3344 53.0249 55.3344 51.1597 54.1797 50.0051L39.7022 35.5276L54.1797 21.05C55.3048 19.925 55.3048 18.0302 54.1797 16.9051Z" fill="black"/>
</svg>
