<svg width="50" height="47" viewBox="0 0 50 47" fill="none" xmlns="http://www.w3.org/2000/svg">
<path d="M14.164 39.3404V32.2362H19.8296V39.3404C19.8296 40.1218 20.467 40.7612 21.246 40.7612H25.4952C26.2742 40.7612 26.9116 40.1218 26.9116 39.3404V29.3946H29.3195C29.9711 29.3946 30.2827 28.5847 29.7869 28.1584L17.9458 17.4596C17.4076 16.9765 16.586 16.9765 16.0478 17.4596L4.20668 28.1584C3.7251 28.5847 4.02255 29.3946 4.67409 29.3946H7.08198V39.3404C7.08198 40.1218 7.71936 40.7612 8.49838 40.7612H12.7476C13.5266 40.7612 14.164 40.1218 14.164 39.3404Z" fill="black"/>
<path d="M40.7849 18.4707H33.7029V25.5749C33.7029 26.3563 33.0655 26.9957 32.2865 26.9957C31.5075 26.9957 30.8701 26.3563 30.8701 25.5749V18.4707H23.7881C23.0091 18.4707 22.3717 17.8314 22.3717 17.0499C22.3717 16.2685 23.0091 15.6291 23.7881 15.6291H30.8701V8.52495C30.8701 7.7435 31.5075 7.10413 32.2865 7.10413C33.0655 7.10413 33.7029 7.7435 33.7029 8.52495V15.6291H40.7849C41.564 15.6291 42.2013 16.2685 42.2013 17.0499C42.2013 17.8314 41.564 18.4707 40.7849 18.4707Z" fill="black"/>
</svg>
