<svg width="18" height="18" viewBox="0 0 18 18" fill="none" xmlns="http://www.w3.org/2000/svg">
<path d="M10.843 16.349C10.67 16.759 10.229 17.073 9.78901 16.985C9.35001 16.897 9.00001 16.446 9.00001 16V9L1.94201 8.993C1.72528 8.99393 1.51495 8.91962 1.3469 8.78276C1.17886 8.6459 1.06351 8.45496 1.02056 8.24253C0.977598 8.03011 1.00969 7.80935 1.11135 7.61795C1.21301 7.42654 1.37795 7.27635 1.57801 7.193L14.688 2.076C14.8608 2.00228 15.0517 1.98175 15.2362 2.01701C15.4207 2.05228 15.5906 2.14175 15.724 2.274C15.996 2.545 16.075 2.954 15.924 3.306L10.843 16.349Z" fill="current"/>
</svg>
