<svg width="34" height="34" viewBox="0 0 34 34" fill="none" xmlns="http://www.w3.org/2000/svg">
<path d="M8.49998 26.9167C8.49998 28.475 9.77498 29.75 11.3333 29.75H22.6666C24.225 29.75 25.5 28.475 25.5 26.9167V12.75C25.5 11.1917 24.225 9.91667 22.6666 9.91667H11.3333C9.77498 9.91667 8.49998 11.1917 8.49998 12.75V26.9167ZM25.5 5.66667H21.9583L20.9525 4.66083C20.6975 4.40583 20.3291 4.25 19.9608 4.25H14.0391C13.6708 4.25 13.3025 4.40583 13.0475 4.66083L12.0416 5.66667H8.49998C7.72081 5.66667 7.08331 6.30417 7.08331 7.08333C7.08331 7.8625 7.72081 8.5 8.49998 8.5H25.5C26.2791 8.5 26.9166 7.8625 26.9166 7.08333C26.9166 6.30417 26.2791 5.66667 25.5 5.66667Z" fill="black"/>
</svg>
