<svg width="51" height="51" viewBox="0 0 51 51" fill="none" xmlns="http://www.w3.org/2000/svg">
<path d="M12.75 21.25C10.4125 21.25 8.5 23.1625 8.5 25.5C8.5 27.8375 10.4125 29.75 12.75 29.75C15.0875 29.75 17 27.8375 17 25.5C17 23.1625 15.0875 21.25 12.75 21.25ZM38.25 21.25C35.9125 21.25 34 23.1625 34 25.5C34 27.8375 35.9125 29.75 38.25 29.75C40.5875 29.75 42.5 27.8375 42.5 25.5C42.5 23.1625 40.5875 21.25 38.25 21.25ZM25.5 21.25C23.1625 21.25 21.25 23.1625 21.25 25.5C21.25 27.8375 23.1625 29.75 25.5 29.75C27.8375 29.75 29.75 27.8375 29.75 25.5C29.75 23.1625 27.8375 21.25 25.5 21.25Z" fill="black"/>
</svg>
