<svg width="47" height="47" viewBox="0 0 47 47" fill="none" xmlns="http://www.w3.org/2000/svg">
<path d="M21.5417 35.25H25.4583C26.5354 35.25 27.4167 34.3687 27.4167 33.2917C27.4167 32.2146 26.5354 31.3333 25.4583 31.3333H21.5417C20.4646 31.3333 19.5833 32.2146 19.5833 33.2917C19.5833 34.3687 20.4646 35.25 21.5417 35.25ZM5.875 13.7083C5.875 14.7854 6.75625 15.6667 7.83333 15.6667H39.1667C40.2438 15.6667 41.125 14.7854 41.125 13.7083C41.125 12.6313 40.2438 11.75 39.1667 11.75H7.83333C6.75625 11.75 5.875 12.6313 5.875 13.7083ZM13.7083 25.4583H33.2917C34.3688 25.4583 35.25 24.5771 35.25 23.5C35.25 22.4229 34.3688 21.5417 33.2917 21.5417H13.7083C12.6312 21.5417 11.75 22.4229 11.75 23.5C11.75 24.5771 12.6312 25.4583 13.7083 25.4583Z" fill="black"/>
</svg>
