<svg width="77" height="77" viewBox="0 0 77 77" fill="none" xmlns="http://www.w3.org/2000/svg">
<path d="M17.6114 70.5739V46.5146H12.7995V28.8711C12.7995 25.3424 15.6866 22.4553 19.2153 22.4553H28.839C32.3677 22.4553 35.2549 25.3424 35.2549 28.8711V46.5146H30.443V70.5739H17.6114ZM57.7102 70.5739V51.3265H67.3339L59.1858 26.8502C58.2876 24.2197 55.8496 22.4553 53.0908 22.4553H52.7059C49.9471 22.4553 47.477 24.2197 46.6108 26.8502L38.4628 51.3265H48.0865V70.5739H57.7102ZM24.0272 19.2474C27.588 19.2474 30.443 16.3924 30.443 12.8316C30.443 9.27084 27.588 6.4158 24.0272 6.4158C20.4664 6.4158 17.6114 9.27084 17.6114 12.8316C17.6114 16.3924 20.4664 19.2474 24.0272 19.2474ZM52.8983 19.2474C56.4591 19.2474 59.3141 16.3924 59.3141 12.8316C59.3141 9.27084 56.4591 6.4158 52.8983 6.4158C49.3376 6.4158 46.4825 9.27084 46.4825 12.8316C46.4825 16.3924 49.3376 19.2474 52.8983 19.2474Z" fill="black"/>
</svg>
