<svg width="32" height="32" viewBox="0 0 32 32" fill="none" xmlns="http://www.w3.org/2000/svg">
<path d="M23.9998 10.6666C21.0532 10.6666 18.6665 13.0533 18.6665 16C18.6665 18.9466 21.0532 21.3333 23.9998 21.3333C26.9465 21.3333 29.3332 18.9466 29.3332 16C29.3332 13.0533 26.9465 10.6666 23.9998 10.6666ZM20.6665 16C20.6665 14.16 22.1598 12.6666 23.9998 12.6666C24.5598 12.6666 25.0665 12.8133 25.5332 13.0533L21.0532 17.5333C20.8132 17.0666 20.6665 16.56 20.6665 16ZM23.9998 19.3333C23.4398 19.3333 22.9332 19.1866 22.4665 18.9466L26.9465 14.4666C27.1865 14.9333 27.3332 15.44 27.3332 16C27.3332 17.84 25.8398 19.3333 23.9998 19.3333Z" fill="black"/>
<path d="M22.6665 24H9.33317V8.00004H22.6665V9.33337H25.3332V8.00004V6.66671V4.00004C25.3332 2.53337 24.1332 1.33337 22.6665 1.33337H9.33317C7.8665 1.33337 6.6665 2.53337 6.6665 4.00004V28C6.6665 29.4667 7.8665 30.6667 9.33317 30.6667H22.6665C24.1332 30.6667 25.3332 29.4667 25.3332 28V25.3334V24V22.6667H22.6665V24ZM9.33317 4.00004H22.6665V5.33337H9.33317V4.00004ZM22.6665 28H9.33317V26.6667H22.6665V28Z" fill="black"/>
</svg>
