<svg width="37" height="37" viewBox="0 0 37 37" fill="none" xmlns="http://www.w3.org/2000/svg">
<path d="M28.6596 16.2184C30.2783 17.0046 31.8046 17.9913 33.2229 19.1629L31.5733 20.8125C30.6792 20.0879 29.7079 19.4404 28.675 18.8546V16.2184M8.325 16.2184V18.8392C7.32292 19.4096 6.35167 20.0571 5.44208 20.7971L3.7925 19.1475C5.19542 17.9913 6.72167 17.02 8.325 16.2184ZM18.5 10.7917C11.5008 10.7917 5.14917 13.5359 0.447083 17.9913C0.169583 18.2688 0 18.6542 0 19.0859C0 19.5175 0.169583 19.9029 0.447083 20.165L4.27042 23.9884C4.54792 24.2659 4.93333 24.4354 5.365 24.4354C5.78125 24.4354 6.16667 24.2813 6.44417 24.0038C7.66208 22.8784 9.03417 21.9071 10.545 21.1517C11.0537 20.905 11.4083 20.3654 11.4083 19.7642V14.985C13.6437 14.2604 16.0333 13.875 18.5 13.875C20.9667 13.875 23.3562 14.2604 25.5762 15.0004V19.7796C25.5762 20.3963 25.9308 20.9204 26.4396 21.1671C27.9504 21.9225 29.3379 22.8784 30.5558 24.0192C30.8333 24.2813 31.2187 24.4509 31.635 24.4509C32.0667 24.4509 32.4521 24.2813 32.7296 24.0038L36.5529 20.1804C36.8304 19.9029 37 19.5175 37 19.0859C37 18.6542 36.8304 18.2688 36.5529 17.9913C31.8508 13.5359 25.4992 10.7917 18.5 10.7917Z" fill="black"/>
</svg>
