<svg width="220" height="221" viewBox="0 0 220 221" fill="none" xmlns="http://www.w3.org/2000/svg">
<path d="M109.957 19.1799C74.5753 19.1799 45.959 47.7962 45.959 83.1779C45.959 99.086 50.5303 113.988 58.85 127.428C67.5355 141.508 78.9637 153.576 87.7406 167.655C92.0376 174.512 95.146 180.912 98.4374 188.317C100.814 193.346 102.734 202.031 109.957 202.031C117.18 202.031 119.1 193.346 121.385 188.317C124.768 180.912 127.785 174.512 132.082 167.655C140.859 153.667 152.287 141.599 160.973 127.428C169.384 113.988 173.955 99.086 173.955 83.1779C173.955 47.7962 145.339 19.1799 109.957 19.1799ZM109.957 108.32C97.3403 108.32 87.1006 98.0803 87.1006 85.4636C87.1006 72.8468 97.3403 62.6071 109.957 62.6071C122.574 62.6071 132.813 72.8468 132.813 85.4636C132.813 98.0803 122.574 108.32 109.957 108.32Z" fill="current"/>
</svg>
