<svg width="27" height="27" viewBox="0 0 27 27" fill="none" xmlns="http://www.w3.org/2000/svg">
<path opacity="0.3" d="M16.8748 12.375V4.5H4.49976V13.6912L5.16351 13.0387L5.81601 12.375H6.74976H16.8748Z" fill="black"/>
<path d="M23.625 6.75H21.375V16.875H6.75V19.125C6.75 19.7437 7.25625 20.25 7.875 20.25H20.25L24.75 24.75V7.875C24.75 7.25625 24.2437 6.75 23.625 6.75ZM18 14.625C18.6187 14.625 19.125 14.1187 19.125 13.5V3.375C19.125 2.75625 18.6187 2.25 18 2.25H3.375C2.75625 2.25 2.25 2.75625 2.25 3.375V19.125L6.75 14.625H18ZM5.16375 13.0387L4.5 13.6912V4.5H16.875V12.375H5.81625L5.16375 13.0387Z" fill="black"/>
</svg>
