<svg width="38" height="38" viewBox="0 0 38 38" fill="none" xmlns="http://www.w3.org/2000/svg">
<path opacity="0.3" d="M11.3999 16.625V28.5H15.1999V20.9H22.7999V28.5H26.5999V16.625L18.9999 10.108L11.3999 16.625ZM20.8999 17.1H17.0999C17.0999 16.055 17.9549 15.2 18.9999 15.2C20.0449 15.2 20.8999 16.055 20.8999 17.1Z" fill="black"/>
<path d="M28.5 15.751V9.49998H24.7V12.483L19 7.59998L5.69995 19H9.49995V30.4H17.1V22.8H20.9V30.4H28.5V19H32.3L28.5 15.751ZM26.6 28.5H22.8V20.9H15.2V28.5H11.4V16.625L19 10.108L26.6 16.625V28.5Z" fill="black"/>
<path d="M17.1001 17.1H20.9001C20.9001 16.055 20.0451 15.2 19.0001 15.2C17.9551 15.2 17.1001 16.055 17.1001 17.1Z" fill="black"/>
</svg>
