<svg width="18" height="19" viewBox="0 0 18 19" fill="none" xmlns="http://www.w3.org/2000/svg">
<path d="M2.75839 10.1356L9.00805 3.88591L15.2577 10.1356C15.8859 10.7638 16.9007 10.7638 17.5289 10.1356C18.157 9.50738 18.157 8.49262 17.5289 7.86443L10.1356 0.471141C9.50738 -0.157047 8.49262 -0.157047 7.86443 0.471141L0.471141 7.86443C-0.157047 8.49262 -0.157047 9.50738 0.471141 10.1356C1.09933 10.7477 2.1302 10.7638 2.75839 10.1356Z" fill="#828282"/>
<path d="M2.75839 17.8499L9.00805 11.6002L15.2577 17.8499C15.8859 18.4781 16.9007 18.4781 17.5289 17.8499C18.157 17.2217 18.157 16.2069 17.5289 15.5787L10.1356 8.18544C9.50738 7.55725 8.49262 7.55725 7.86443 8.18544L0.471141 15.5787C-0.157047 16.2069 -0.157047 17.2217 0.471141 17.8499C1.09933 18.4619 2.1302 18.4781 2.75839 17.8499Z" fill="#828282"/>
</svg>
