<svg width="33" height="33" viewBox="0 0 33 33" fill="none" xmlns="http://www.w3.org/2000/svg">
<path d="M9.55349 28.2083V23.4167H13.3749V28.2083C13.3749 28.7354 13.8048 29.1667 14.3302 29.1667H17.1963C17.7217 29.1667 18.1516 28.7354 18.1516 28.2083V21.5H19.7757C20.2152 21.5 20.4254 20.9538 20.091 20.6663L12.1043 13.45C11.7412 13.1242 11.1871 13.1242 10.8241 13.45L2.83739 20.6663C2.51257 20.9538 2.71319 21.5 3.15265 21.5H4.77675V28.2083C4.77675 28.7354 5.20665 29.1667 5.7321 29.1667H8.59814C9.12359 29.1667 9.55349 28.7354 9.55349 28.2083Z" fill="#828282"/>
<path d="M27.4682 11.9309H22.8937V16.5197C22.8937 17.0245 22.482 17.4374 21.9788 17.4374C21.4756 17.4374 21.0639 17.0245 21.0639 16.5197V11.9309H16.4894C15.9862 11.9309 15.5745 11.5179 15.5745 11.0131C15.5745 10.5084 15.9862 10.0954 16.4894 10.0954H21.0639V5.50657C21.0639 5.0018 21.4756 4.58881 21.9788 4.58881C22.482 4.58881 22.8937 5.0018 22.8937 5.50657V10.0954H27.4682C27.9714 10.0954 28.3831 10.5084 28.3831 11.0131C28.3831 11.5179 27.9714 11.9309 27.4682 11.9309Z" fill="#828282"/>
</svg>
