<svg width="25" height="25" viewBox="0 0 25 25" fill="none" xmlns="http://www.w3.org/2000/svg">
<path d="M9.375 11.4583H7.29167V13.5417H9.375V11.4583ZM13.5417 11.4583H11.4583V13.5417H13.5417V11.4583ZM17.7083 11.4583H15.625V13.5417H17.7083V11.4583ZM19.7917 4.16666H18.75V2.08333H16.6667V4.16666H8.33333V2.08333H6.25V4.16666H5.20833C4.05208 4.16666 3.13542 5.10416 3.13542 6.24999L3.125 20.8333C3.125 21.9792 4.05208 22.9167 5.20833 22.9167H19.7917C20.9375 22.9167 21.875 21.9792 21.875 20.8333V6.24999C21.875 5.10416 20.9375 4.16666 19.7917 4.16666ZM19.7917 20.8333H5.20833V9.37499H19.7917V20.8333Z" fill="#828282"/>
</svg>
