<svg width="33" height="30" viewBox="0 0 33 30" fill="none" xmlns="http://www.w3.org/2000/svg">
<path d="M9.55346 25.2083V20.4167H13.3749V25.2083C13.3749 25.7354 13.8048 26.1667 14.3302 26.1667H17.1963C17.7217 26.1667 18.1516 25.7354 18.1516 25.2083V18.5H19.7757C20.2152 18.5 20.4253 17.9538 20.091 17.6663L12.1042 10.45C11.7412 10.1242 11.1871 10.1242 10.8241 10.45L2.83736 17.6663C2.51254 17.9538 2.71316 18.5 3.15262 18.5H4.77672V25.2083C4.77672 25.7354 5.20662 26.1667 5.73207 26.1667H8.59811C9.12356 26.1667 9.55346 25.7354 9.55346 25.2083Z" fill="#828282"/>
<path d="M25.5819 10.8864H24.9676L24.7498 10.6764C25.683 9.5878 26.1651 8.10259 25.9007 6.52406C25.5352 4.36233 23.7312 2.63606 21.5539 2.37167C18.2647 1.96732 15.4964 4.73558 15.9008 8.02483C16.1651 10.2021 17.8914 12.0061 20.0531 12.3716C21.6317 12.636 23.1169 12.1539 24.2055 11.2208L24.4155 11.4385V12.0528L27.7203 15.3576C28.0391 15.6764 28.5601 15.6764 28.8789 15.3576C29.1977 15.0388 29.1977 14.5178 28.8789 14.199L25.5819 10.8864ZM20.9163 10.8864C18.9801 10.8864 17.4171 9.32342 17.4171 7.38719C17.4171 5.45097 18.9801 3.88799 20.9163 3.88799C22.8525 3.88799 24.4155 5.45097 24.4155 7.38719C24.4155 9.32342 22.8525 10.8864 20.9163 10.8864Z" fill="#828282"/>
</svg>
