<svg width="28" height="28" viewBox="0 0 28 28" fill="none" xmlns="http://www.w3.org/2000/svg">
<path d="M15.1667 3.5H12.8333V15.1667H15.1667V3.5ZM20.8017 6.03167L19.145 7.68833C20.9883 9.17 22.1667 11.445 22.1667 14C22.1667 18.515 18.515 22.1667 14 22.1667C9.485 22.1667 5.83333 18.515 5.83333 14C5.83333 11.445 7.01167 9.17 8.84333 7.67667L7.19833 6.03167C4.935 7.95667 3.5 10.8033 3.5 14C3.5 19.7983 8.20167 24.5 14 24.5C19.7983 24.5 24.5 19.7983 24.5 14C24.5 10.8033 23.065 7.95667 20.8017 6.03167Z" fill="black"/>
</svg>
