<svg width="48" height="48" viewBox="0 0 48 48" fill="none" xmlns="http://www.w3.org/2000/svg">
<path opacity="0.3" d="M14.4 20.9999V35.9999H19.2V26.3999H28.8V35.9999H33.6V20.9999L24 12.7679L14.4 20.9999ZM26.4 21.5999H21.6C21.6 20.2799 22.68 19.1999 24 19.1999C25.32 19.1999 26.4 20.2799 26.4 21.5999Z" fill="black"/>
<path d="M36 19.896V12H31.2V15.768L24 9.59998L7.20001 24H12V38.4H21.6V28.8H26.4V38.4H36V24H40.8L36 19.896ZM33.6 36H28.8V26.4H19.2V36H14.4V21L24 12.768L33.6 21V36Z" fill="black"/>
<path d="M21.6 21.6H26.4C26.4 20.28 25.32 19.2 24 19.2C22.68 19.2 21.6 20.28 21.6 21.6Z" fill="black"/>
</svg>
